<svg width="21" height="17" viewBox="0 0 21 17" fill="none" xmlns="http://www.w3.org/2000/svg">
<path d="M20.3832 2.15605C19.6198 2.49374 18.8102 2.71552 17.9812 2.81405C18.855 2.29148 19.509 1.46906 19.8212 0.500049C19.0012 0.988049 18.1022 1.33005 17.1652 1.51505C16.5359 0.841628 15.7016 0.395012 14.7922 0.244633C13.8828 0.094255 12.9492 0.24854 12.1365 0.683502C11.3238 1.11846 10.6776 1.80973 10.2984 2.64984C9.91909 3.48995 9.82799 4.43183 10.0392 5.32905C8.37635 5.2457 6.74958 4.81357 5.26453 4.06071C3.77949 3.30785 2.46937 2.2511 1.41924 0.959049C1.04753 1.5975 0.852199 2.32328 0.853244 3.06205C0.853244 4.51205 1.59124 5.79305 2.71324 6.54305C2.04925 6.52215 1.39988 6.34283 0.819244 6.02005V6.07205C0.819445 7.03775 1.15361 7.97366 1.76509 8.72111C2.37657 9.46855 3.22773 9.98152 4.17424 10.173C3.55786 10.3401 2.91155 10.3647 2.28424 10.245C2.55111 11.0763 3.07125 11.8032 3.77184 12.3242C4.47242 12.8451 5.31837 13.1338 6.19124 13.15C5.32372 13.8314 4.33042 14.335 3.26812 14.6322C2.20583 14.9294 1.09537 15.0143 0.000244141 14.882C1.91194 16.1115 4.13734 16.7642 6.41024 16.762C14.1032 16.762 18.3102 10.389 18.3102 4.86205C18.3102 4.68205 18.3052 4.50005 18.2972 4.32205C19.1161 3.73022 19.8228 2.99707 20.3842 2.15705L20.3832 2.15605Z" fill="white"/>
</svg>
